<svg xmlns="http://www.w3.org/2000/svg" width="1024" height="1024" viewBox="0 0 1024 1024" version="1.1"><path d="M 158.828 507 L 144.169 551 149.871 551 L 155.572 551 170.094 507 L 184.616 463 179.051 463 L 173.486 463 158.828 507 M 771.360 476 C 771.360 481.225, 771.529 483.363, 771.735 480.750 C 771.941 478.137, 771.941 473.863, 771.735 471.250 C 771.529 468.637, 771.360 470.775, 771.360 476 M 771.407 515 C 771.407 524.075, 771.559 527.788, 771.744 523.250 C 771.929 518.712, 771.929 511.288, 771.744 506.750 C 771.559 502.212, 771.407 505.925, 771.407 515 M 327.423 529.500 C 327.424 541.050, 327.570 545.638, 327.747 539.696 C 327.924 533.753, 327.923 524.303, 327.745 518.696 C 327.567 513.088, 327.422 517.950, 327.423 529.500 M 395.417 532.500 C 395.418 542.950, 395.566 547.089, 395.746 541.698 C 395.926 536.307, 395.925 527.757, 395.744 522.698 C 395.563 517.639, 395.416 522.050, 395.417 532.500" stroke="none" fill="#aa4cfd" fill-rule="evenodd"/><path d="M 499 505.500 L 499 551 506 551 L 513 551 513 505.500 L 513 460 506 460 L 499 460 499 505.500 M 802 505.500 L 802 551 808.500 551 L 815 551 815 528.578 L 815 506.156 819.163 502.593 C 827.438 495.509, 837.924 496.666, 844.438 505.382 C 846.345 507.933, 846.523 509.751, 846.805 529.570 L 847.110 551 853.555 551 L 860 551 860 529.182 C 860 512.672, 859.634 506.131, 858.496 502.298 C 853.506 485.497, 829.778 480.239, 818.241 493.378 L 815 497.070 815 478.535 L 815 460 808.500 460 L 802 460 802 505.500 M 232.672 462.368 C 218.686 466.315, 210.870 478.904, 213.927 492.563 C 216.219 502.804, 223.192 507.947, 239.500 511.424 C 257.024 515.160, 262.004 518.349, 261.996 525.827 C 261.986 535.974, 250.845 542.081, 237.977 538.994 C 231.798 537.512, 227.523 534.115, 225.989 529.467 L 224.845 526 218.311 526 L 211.777 526 212.472 529.703 C 213.546 535.427, 216.493 540.384, 221.382 544.687 C 226.720 549.386, 230.996 550.909, 241 551.674 C 262.210 553.298, 275 543.366, 275 525.271 C 275 517.583, 273.673 513.599, 269.633 509.153 C 266.187 505.360, 260.798 503.147, 247.184 499.931 C 231.859 496.311, 228.544 494.546, 226.925 489.146 C 225.907 485.745, 226.004 484.664, 227.621 481.376 C 230.319 475.890, 234.499 473.824, 242.894 473.824 C 252.569 473.824, 258.394 477.254, 259.596 483.660 L 260.223 487 266.611 487 C 272.572 487, 273 486.849, 272.994 484.750 C 272.975 476.726, 266.377 467.699, 257.853 464.032 C 251.323 461.223, 239.499 460.442, 232.672 462.368 M 287.455 463.455 C 282.980 467.929, 285.269 475.025, 291.708 476.642 C 297.349 478.057, 303.017 471.805, 300.971 466.424 C 298.750 460.581, 291.845 459.064, 287.455 463.455 M 623.064 466.750 C 620.351 474.355, 591.840 547.431, 590.901 549.185 C 590.003 550.862, 590.491 551, 597.333 551 L 604.736 551 608.248 541.750 C 610.180 536.663, 612.073 531.478, 612.454 530.229 C 613.148 527.958, 613.152 527.957, 632.208 528.229 L 651.267 528.500 655.384 539.734 L 659.500 550.968 666.857 550.984 C 673.445 550.998, 674.147 550.817, 673.571 549.250 C 673.217 548.288, 665.632 528.491, 656.714 505.258 L 640.500 463.016 632.451 463.008 L 624.402 463 623.064 466.750 M 764.250 469.028 L 758 471.908 758 479.454 L 758 487 752.500 487 L 747 487 747 493 L 747 499 752.500 499 L 758 499 758.022 518.250 C 758.041 534.823, 758.301 538.067, 759.896 541.579 C 763.378 549.244, 770.182 552.542, 780.929 551.773 C 784.585 551.511, 788.502 550.802, 789.635 550.195 C 791.633 549.126, 791.649 548.921, 790.159 543.203 C 788.629 537.331, 788.617 537.317, 786.062 538.651 C 782.089 540.724, 777.467 540.306, 774.306 537.587 L 771.500 535.175 771.153 517.087 L 770.806 499 780.403 499 L 790 499 790 493 L 790 487 780.565 487 L 771.130 487 771.315 476.500 C 771.417 470.724, 771.275 466.033, 771 466.074 C 770.725 466.115, 767.688 467.444, 764.250 469.028 M 625.298 496.483 L 618.292 515 632.146 515 C 639.766 515, 645.992 514.888, 645.982 514.750 C 645.972 514.612, 642.891 506.280, 639.134 496.233 L 632.304 477.966 625.298 496.483 M 335.907 488.324 C 333.483 489.603, 330.488 492.144, 329.250 493.972 L 327 497.296 327 492.148 L 327 487 320.500 487 L 314 487 314 519 L 314 551 320.750 551 L 327.500 550.999 327.317 528.250 C 327.138 506.128, 327.193 505.434, 329.317 503.121 C 335.958 495.885, 348.843 496.494, 353.544 504.266 C 355.296 507.162, 355.533 509.772, 355.820 529.250 L 356.140 551 362.570 551 L 369 551 369 528.135 C 369 506.725, 369.128 505.107, 371.016 502.707 C 375.370 497.172, 385.885 496.600, 391.118 501.613 C 392.710 503.138, 394.457 505.987, 395.001 507.943 C 395.544 509.899, 395.991 520.388, 395.994 531.250 L 396 551 402.500 551 L 409 551 408.976 529.250 C 408.950 505.168, 408.439 501.510, 404.271 495.574 C 396.423 484.395, 379.996 482.950, 369.548 492.520 L 365.736 496.011 361.473 492.082 C 354.455 485.613, 343.970 484.072, 335.907 488.324 M 448.882 487.319 C 443.157 489.462, 438.092 492.955, 436.524 495.841 C 435.123 498.422, 435.079 498.331, 435.040 492.750 L 435 487 428.500 487 L 422 487 422 530.500 L 422 574 428.500 574 L 435 574 435 556.820 L 435 539.640 438.694 543.956 C 440.726 546.330, 444.213 549.101, 446.444 550.114 C 451.529 552.423, 461.009 552.557, 467.316 550.408 C 473.693 548.235, 481.284 541.159, 484.700 534.203 C 487.170 529.171, 487.500 527.382, 487.499 519 C 487.498 508.078, 485.738 503.036, 479.523 496.157 C 472.250 488.107, 457.864 483.957, 448.882 487.319 M 545.324 487.380 C 536.141 490.383, 529.557 496.330, 525.439 505.342 C 523.026 510.621, 522.808 512.064, 523.172 520.342 C 523.785 534.295, 528.892 542.697, 540.500 548.850 C 544.963 551.215, 546.574 551.497, 555.500 551.470 C 566.606 551.437, 571.313 549.787, 577.835 543.642 C 580.700 540.943, 584 536.125, 584 534.641 C 584 534.390, 581.386 533.301, 578.192 532.222 L 572.384 530.261 569.039 534.245 C 565.205 538.812, 560.715 541.010, 555.282 540.978 C 545.947 540.924, 536 532.131, 536 523.935 C 536 522.073, 536.949 522, 561.138 522 L 586.276 522 585.624 515.638 C 584.242 502.149, 578.619 493.248, 568.788 488.987 C 562.300 486.176, 551.308 485.423, 545.324 487.380 M 287 519 L 287 551 293.500 551 L 300 551 300 519 L 300 487 293.500 487 L 287 487 287 519 M 680.185 510.750 C 680.477 532.803, 680.654 534.787, 682.649 538.513 C 687.354 547.297, 694.754 551.956, 704 551.956 C 710.842 551.956, 716.489 549.485, 720.759 544.622 L 724 540.930 724 545.965 L 724 551 730.500 551 L 737 551 737 519 L 737 487 730 487 L 723 487 723 509.826 C 723 532.245, 722.960 532.689, 720.736 534.778 C 711.817 543.157, 697.453 540.131, 694.173 529.182 C 693.453 526.780, 693 517.876, 693 506.134 L 693 487 686.435 487 L 679.869 487 680.185 510.750 M 548.007 498.593 C 543.798 500.419, 540.304 503.550, 538.405 507.200 C 535.383 513.008, 535.361 513, 554.500 513 C 565.863 513, 572 512.638, 572 511.968 C 572 509.605, 569.052 504.324, 566.373 501.886 C 561.117 497.104, 554.271 495.877, 548.007 498.593 M 446.020 500.250 C 439.058 503.807, 435.884 508.573, 435.255 516.416 C 434.604 524.528, 436.660 530.616, 441.479 534.848 C 450.535 542.799, 464.454 541.049, 471.500 531.075 C 474.209 527.240, 474.500 526.077, 474.500 519.091 C 474.500 512.282, 474.162 510.844, 471.686 507.101 C 468.367 502.087, 460.672 498.025, 454.462 498.010 C 452.228 498.004, 448.456 499.005, 446.020 500.250" stroke="none" fill="#f7f3fb" fill-rule="evenodd"/><path d="M 0 512.001 L 0 1024.002 512.250 1023.751 L 1024.500 1023.500 1024.751 511.750 L 1025.002 0 512.501 0 L 0 0 0 512.001 M 0.496 512.500 C 0.496 794.100, 0.610 909.151, 0.750 768.168 C 0.890 627.186, 0.890 396.786, 0.750 256.168 C 0.610 115.551, 0.496 230.900, 0.496 512.500 M 499 505.500 L 499 551 506 551 L 513 551 513 505.500 L 513 460 506 460 L 499 460 499 505.500 M 802 505.500 L 802 551 808.500 551 L 815 551 815 528.900 L 815 506.800 818.300 503.500 C 824.892 496.908, 835.785 496.568, 842.256 502.752 C 846.348 506.662, 846.988 510.583, 846.994 531.750 L 847 551 853.564 551 L 860.129 551 859.814 526.668 L 859.500 502.336 856.474 497.445 C 854.597 494.412, 851.585 491.403, 848.548 489.526 C 844.090 486.773, 842.875 486.500, 835.074 486.504 C 827.257 486.508, 826.120 486.766, 822.192 489.425 C 819.823 491.030, 817.254 493.503, 816.482 494.921 C 815.236 497.212, 815.076 495.409, 815.040 478.750 L 815 460 808.500 460 L 802 460 802 505.500 M 232.500 462.399 C 218.443 466.845, 211.360 477.579, 213.420 491.317 C 215.098 502.505, 222.683 507.869, 243.500 512.588 C 253.864 514.937, 255.943 515.750, 258.750 518.554 C 261.125 520.926, 262 522.702, 261.998 525.150 C 261.996 530.117, 259.028 535.093, 254.769 537.270 C 249.458 539.984, 238.661 539.888, 233.154 537.078 C 229.200 535.061, 226 530.799, 226 527.550 C 226 526.295, 224.643 526, 218.869 526 L 211.738 526 212.340 529.705 C 213.288 535.550, 217.236 542.197, 221.849 545.715 C 227.414 549.960, 234.604 552, 244 552 C 263.547 552, 275.294 542.310, 275.294 526.187 C 275.294 516.997, 273.697 512.783, 268.468 508.180 C 263.965 504.217, 256.717 501.535, 243.500 498.941 C 236.082 497.486, 229.272 494.377, 227.905 491.822 C 226.297 488.817, 226.590 482.275, 228.460 479.421 C 229.393 477.997, 231.681 476.196, 233.546 475.416 C 237.927 473.586, 248.103 473.598, 252.510 475.440 C 256.028 476.910, 259.990 482.101, 259.996 485.250 C 259.999 486.747, 260.995 487, 266.871 487 L 273.742 487 272.904 482.514 C 271.724 476.200, 269.749 472.829, 264.547 468.250 C 257.152 461.741, 242.841 459.128, 232.500 462.399 M 287.455 463.455 C 282.481 468.428, 286.010 477, 293.031 477 C 295.177 477, 297.105 476.049, 299.194 473.960 C 301.738 471.416, 302.133 470.396, 301.614 467.710 C 300.331 461.069, 292.264 458.645, 287.455 463.455 M 158.828 507 L 144.169 551 149.871 551 L 155.572 551 170.094 507 L 184.616 463 179.051 463 L 173.486 463 158.828 507 M 623.074 466.275 C 622.480 468.077, 614.863 487.877, 606.148 510.275 L 590.303 551 597.579 551 L 604.855 551 607.807 543.250 C 609.432 538.987, 611.355 533.813, 612.081 531.750 L 613.402 528 632.128 528 L 650.855 528 653.807 535.750 C 655.432 540.013, 657.355 545.188, 658.081 547.250 L 659.402 551 666.701 551 C 670.715 551, 674 550.697, 674 550.326 C 674 549.956, 666.491 530.156, 657.313 506.326 L 640.626 463 632.390 463 L 624.155 463 623.074 466.275 M 764.250 468.984 L 758 471.877 758 479.438 L 758 487 752.500 487 L 747 487 747 493 L 747 499 752.500 499 L 758 499 758.006 517.750 C 758.009 528.063, 758.454 538.095, 758.996 540.044 C 760.113 544.065, 765.128 549.360, 769.315 550.939 C 774.623 552.940, 792.046 551.520, 791.985 549.092 C 791.977 548.766, 791.177 545.960, 790.208 542.855 L 788.445 537.211 785.579 538.713 C 781.886 540.648, 776.077 539.767, 773.750 536.920 C 772.228 535.058, 772 532.444, 772 516.889 L 772 499 781 499 L 790 499 790 493 L 790 487 781 487 L 772 487 772 476.500 C 772 470.725, 771.663 466.021, 771.250 466.046 C 770.837 466.071, 767.688 467.393, 764.250 468.984 M 631.253 481 C 624.576 498.306, 618.894 514.228, 619.264 514.597 C 619.518 514.852, 625.581 514.934, 632.736 514.780 L 645.745 514.500 639.847 498.500 C 631.803 476.679, 632.428 477.953, 631.253 481 M 336.459 487.880 C 334.236 488.889, 331.145 491.227, 329.591 493.075 L 326.764 496.434 327.139 491.717 L 327.514 487 320.757 487 L 314 487 314 519 L 314 551 321 551 L 328 551 328 527.655 C 328 501.643, 327.732 502.681, 335.254 499.538 C 340.218 497.464, 344.845 497.608, 348.696 499.956 C 355.175 503.907, 355.466 505.103, 355.820 529.203 L 356.140 551 362.570 551 L 369 551 369 527.901 L 369 504.802 372.072 501.933 C 378.867 495.585, 391.055 497.755, 394.137 505.862 C 394.687 507.306, 395.087 517.908, 395.040 529.730 L 394.954 551 402.041 551 L 409.129 551 408.814 526.750 C 408.519 503.934, 408.369 502.254, 406.279 498.347 C 398.883 484.517, 381.268 481.924, 368.840 492.835 L 365.311 495.934 362.406 492.841 C 356.184 486.218, 344.877 484.056, 336.459 487.880 M 447.125 487.643 C 444.719 488.527, 440.960 491.040, 438.772 493.228 L 434.793 497.207 435.147 492.103 L 435.500 486.999 428.750 486.999 L 422 487 422 531.064 L 422 575.128 428.750 574.814 L 435.500 574.500 435.208 557.021 L 434.916 539.542 438.652 543.907 C 443.691 549.793, 448.755 551.956, 457.500 551.956 C 469.137 551.956, 478.827 545.768, 484.834 534.500 C 487.235 529.997, 487.500 528.457, 487.500 519 C 487.500 507.220, 486.188 503.535, 479.270 495.877 C 471.620 487.410, 457.565 483.810, 447.125 487.643 M 546 486.935 C 536.581 489.811, 527.346 498.499, 524.375 507.280 C 520.356 519.158, 523.308 534.018, 531.327 542.268 C 537.471 548.590, 543.876 551.391, 553.214 551.839 C 564.652 552.387, 570.966 550.128, 578.250 542.881 C 581.413 539.734, 584 536.481, 584 535.652 C 584 534.368, 574.633 529.908, 572.212 530.039 C 571.821 530.060, 570.600 531.522, 569.500 533.289 C 567.295 536.829, 560.003 541.003, 556.038 540.994 C 546.205 540.973, 536 532.335, 536 524.032 C 536 522.043, 536.535 522, 561 522 L 586 522 586 518.549 C 586 503.943, 577.516 491.012, 565.612 487.477 C 560.380 485.924, 550.232 485.643, 546 486.935 M 287 519 L 287 551 293.500 551 L 300 551 300 519 L 300 487 293.500 487 L 287 487 287 519 M 680 508.818 C 680 533.454, 680.847 538.273, 686.234 544.260 C 691.134 549.707, 696.331 552, 703.775 552 C 711.227 552, 716.189 549.827, 720.845 544.524 L 724 540.930 724 545.965 L 724 551 730.500 551 L 737 551 737 519 L 737 487 730 487 L 723 487 723 509.066 C 723 521.675, 722.577 531.922, 722.013 532.976 C 720.249 536.271, 714.220 539.228, 709.109 539.305 C 703.232 539.394, 698.348 536.752, 695.535 531.965 C 693.665 528.781, 693.500 526.819, 693.500 507.750 L 693.500 487.001 686.750 487 L 680 487 680 508.818 M 548.655 498.459 C 546.541 499.213, 543.753 500.822, 542.462 502.036 C 540.100 504.254, 537 509.854, 537 511.901 C 537 512.658, 542.450 513, 554.500 513 C 565.863 513, 572 512.638, 572 511.968 C 572 506.886, 565.480 499.783, 559.219 498.044 C 554.504 496.735, 553.365 496.779, 548.655 498.459 M 447.500 499.445 C 434.335 504.288, 430.611 523.846, 440.896 534.131 C 449.595 542.830, 464.585 541.101, 471.732 530.576 C 474.154 527.009, 474.500 525.553, 474.500 518.914 C 474.500 512.257, 474.161 510.839, 471.736 507.340 C 466.516 499.808, 455.906 496.352, 447.500 499.445" stroke="none" fill="#171365" fill-rule="evenodd"/></svg>